<svg xmlns="http://www.w3.org/2000/svg" xmlns:xlink="http://www.w3.org/1999/xlink" width="400" zoomAndPan="magnify" viewBox="0 0 375 374.999991" height="400" preserveAspectRatio="xMidYMid meet" version="1.0"><path fill="#eefffb" d="M 68.675781 158.265625 C 54.269531 183.714844 49.773438 211.191406 57.199219 241.113281 C 74.675781 311.5 152.886719 375 223.425781 339.992188 C 262.347656 320.675781 277.75 273.367188 250.996094 236.730469 C 236.332031 216.648438 212.878906 199.75 187.214844 183.65625 C 154.203125 163.5625 106.136719 131.476562 111.101562 87.246094 C 92.019531 107.976562 79.046875 131.84375 94.148438 158.429688 C 105.734375 178.828125 127.503906 197.519531 155.019531 215.265625 C 166.808594 223.960938 178.261719 233.007812 186.578125 245.050781 C 210.011719 278.976562 183.121094 301.941406 148.71875 298.039062 C 114.625 294.167969 97.996094 277.515625 90.558594 254.164062 C 103.816406 264.890625 117.535156 274.816406 133.71875 279.054688 C 160.371094 286.039062 167.453125 269.519531 159.792969 251.308594 C 155.742188 241.695312 148.269531 232.605469 139.226562 225.347656 C 111.121094 202.773438 93.792969 187.941406 68.675781 158.265625 " fill-opacity="1" fill-rule="evenodd"/><path fill="#19e8ce" d="M 238.773438 329.976562 C 265.917969 307.226562 273.890625 268.070312 251.007812 236.730469 C 236.34375 216.648438 212.886719 199.75 187.226562 183.65625 C 154.214844 163.5625 106.148438 131.476562 111.113281 87.246094 C 99.8125 119.742188 105.269531 141.792969 129.367188 164.964844 C 159.132812 193.582031 198.871094 214.449219 225.691406 245.308594 C 244.953125 267.492188 255.089844 294.132812 238.773438 329.976562 " fill-opacity="1" fill-rule="evenodd"/><path fill="#19e8ce" d="M 162.648438 265.71875 C 162.925781 261.355469 161.933594 256.394531 159.78125 251.285156 C 155.730469 241.671875 148.261719 232.582031 139.214844 225.324219 C 111.113281 202.761719 93.78125 187.929688 68.664062 158.265625 C 93.714844 220.550781 143.019531 221.375 162.648438 265.71875 " fill-opacity="1" fill-rule="evenodd"/><path fill="#8effeb" d="M 187.671875 0 C 155.597656 24.625 115.808594 58.472656 134.566406 98.363281 C 150.089844 131.375 199.628906 162.089844 227.820312 184.917969 C 278.507812 225.949219 317.152344 258.78125 266.097656 323.097656 C 308.085938 283.28125 325.226562 237.355469 284.808594 189.523438 C 273.636719 176.296875 260.332031 163.953125 245.085938 152.398438 C 216.289062 130.582031 174.667969 106.371094 174.402344 65.578125 C 199.058594 103.527344 220.796875 113.332031 254.207031 137.621094 C 285.234375 160.171875 305.6875 186.257812 316.09375 215.675781 C 313.359375 181.972656 300.492188 151.640625 279.960938 123.871094 C 264.9375 103.550781 245.898438 84.714844 227.964844 65.253906 C 207.804688 43.347656 196.761719 29.644531 187.671875 0 " fill-opacity="1" fill-rule="evenodd"/><path fill="#19e8ce" d="M 310.574219 202.339844 C 312.648438 206.710938 314.488281 211.148438 316.09375 215.675781 C 313.359375 181.972656 300.492188 151.640625 279.960938 123.871094 C 264.9375 103.550781 245.898438 84.714844 227.964844 65.253906 C 207.792969 43.359375 196.761719 29.652344 187.671875 0.0117188 C 187.828125 21.324219 192.570312 40.003906 202.460938 58.75 C 214.394531 81.347656 229.738281 92.710938 250.039062 111.703125 C 259.808594 120.847656 268.941406 130.59375 277.347656 141.042969 C 290.976562 157.953125 306.570312 181.148438 310.574219 202.339844 Z M 310.574219 202.339844 " fill-opacity="1" fill-rule="evenodd"/><path fill="#19e8ce" d="M 136.640625 52.214844 C 129.066406 66.414062 126.804688 81.871094 134.554688 98.363281 C 150.078125 131.375 199.617188 162.089844 227.808594 184.917969 C 242.296875 196.640625 255.792969 207.703125 266.5 219.011719 C 235.425781 175.953125 184.347656 151.40625 155.554688 110.566406 C 143.308594 93.191406 135.890625 73.761719 136.640625 52.214844 " fill-opacity="1" fill-rule="evenodd"/></svg>